<?xml version="1.0" encoding="iso-8859-1"?>
<!-- Generator: Adobe Illustrator 19.0.0, SVG Export Plug-In . SVG Version: 6.00 Build 0)  -->
<svg version="1.1" id="Layer_1" xmlns="http://www.w3.org/2000/svg" xmlns:xlink="http://www.w3.org/1999/xlink" x="0px" y="0px"
	 viewBox="0 0 450 450" style="enable-background:new 0 0 450 450;" xml:space="preserve">
<g>
	<g>
		<g>
			<path d="M385,50h-80V20c0-11.028-8.972-20-20-20H165c-11.028,0-20,8.972-20,20v30H65c-11.028,0-20,8.972-20,20v40
				c0,5.523,4.478,10,10,10h15v300c0,16.542,13.458,30,30,30h250c16.542,0,30-13.458,30-30V120h15c5.522,0,10-4.477,10-10V70
				C405,58.972,396.028,50,385,50z M165,20h120v30H165V20z M360,420c0,5.514-4.486,10-10,10H100c-5.514,0-10-4.486-10-10v-15h270
				V420z M360,385H90V120h25v220h20V120h180v220h20V120h25V385z M385,100H65V70h320V100z"/>
			<path d="M225,175c-35.841,0-65,29.159-65,65s29.159,65,65,65s65-29.159,65-65S260.841,175,225,175z M225,285
				c-24.813,0-45-20.187-45-45s20.187-45,45-45s45,20.187,45,45S249.813,285,225,285z"/>
			<rect x="210" y="135" width="30" height="20"/>
			<rect x="260" y="135" width="30" height="20"/>
			<rect x="160" y="135" width="30" height="20"/>
		</g>
	</g>
</g>
<g>
</g>
<g>
</g>
<g>
</g>
<g>
</g>
<g>
</g>
<g>
</g>
<g>
</g>
<g>
</g>
<g>
</g>
<g>
</g>
<g>
</g>
<g>
</g>
<g>
</g>
<g>
</g>
<g>
</g>
</svg>
