<?xml version="1.0"?>
<svg xmlns="http://www.w3.org/2000/svg" version="1" width="24" height="24" viewBox="0 0 24 24">
    <path style="text-indent:0;text-align:start;line-height:normal;text-transform:none;block-progression:tb;-inkscape-font-specification:Bitstream Vera Sans" d="M 12 0 C 7.5935667 0 4 3.5935667 4 8 C 4 11.340585 6.0808761 14.21164 9 15.40625 L 9 18 L 0 18 L 0 20 L 10 20 L 11 20 L 11 19 L 11 15.9375 C 11.330504 15.97939 11.658433 16 12 16 C 12.341567 16 12.669496 15.97939 13 15.9375 L 13 19 L 13 20 L 14 20 L 24 20 L 24 18 L 15 18 L 15 15.40625 C 17.919124 14.21164 20 11.340585 20 8 C 20 3.5935666 16.406433 0 12 0 z M 12 2 C 15.325553 2 18 4.674447 18 8 C 18 11.325553 15.325553 14 12 14 C 8.674447 14 6 11.325553 6 8 C 6 4.6744469 8.6744469 2 12 2 z M 15.59375 4.40625 L 12.0625 6.5 C 12.042194 6.4991849 12.020506 6.5 12 6.5 C 11.171573 6.5 10.5 7.1715729 10.5 8 C 10.5 8.8284271 11.171573 9.5 12 9.5 C 12.828427 9.5 13.5 8.8284271 13.5 8 C 13.5 7.9794944 13.500815 7.9578056 13.5 7.9375 L 15.59375 4.40625 z M 0 22 L 0 24 L 24 24 L 24 22 L 0 22 z" overflow="visible" enable-background="accumulate" font-family="Bitstream Vera Sans"/>
</svg>
